<svg width="512" height="512" viewBox="0 0 512 512" fill="none" xmlns="http://www.w3.org/2000/svg">
<g clip-path="url(#clip0_20_7)">
<path d="M417.066 29.511H25.732V143.674H417.066V29.511Z" fill="#F98091"/>
<path d="M417.071 143.674H25.737V490.436H417.071V143.674Z" fill="#E6E6E6"/>
<path d="M54.296 29.511H25.732V143.674H54.296V29.511Z" fill="#E87084"/>
<path d="M54.296 143.674H25.732V490.436H54.296V143.674Z" fill="#CCCCCC"/>
<path d="M389.75 503.025C442.629 503.025 485.495 460.159 485.495 407.28C485.495 354.401 442.629 311.535 389.75 311.535C336.871 311.535 294.005 354.401 294.005 407.28C294.005 460.159 336.871 503.025 389.75 503.025Z" fill="#F98091"/>
<path d="M303.031 205.042C303.031 199.96 307.156 195.835 312.238 195.835C317.32 195.835 321.445 199.96 321.445 205.042C321.445 210.136 317.32 214.261 312.238 214.261C307.156 214.261 303.031 210.136 303.031 205.042ZM257.611 205.042C257.611 199.96 261.736 195.835 266.818 195.835C271.9 195.835 276.025 199.96 276.025 205.042C276.025 210.136 271.9 214.261 266.818 214.261C261.736 214.261 257.611 210.136 257.611 205.042ZM212.191 205.042C212.191 199.96 216.316 195.835 221.398 195.835C226.492 195.835 230.605 199.96 230.605 205.042C230.605 210.136 226.493 214.261 221.398 214.261C216.316 214.261 212.191 210.136 212.191 205.042ZM166.772 205.042C166.772 199.96 170.897 195.835 175.991 195.835C181.073 195.835 185.198 199.96 185.198 205.042C185.198 210.136 181.073 214.261 175.991 214.261C170.896 214.261 166.772 210.136 166.772 205.042Z" fill="#F97316"/>
<path d="M357.657 214.249C357.055 214.249 356.454 214.2 355.852 214.077C355.263 213.954 354.686 213.782 354.133 213.549C353.581 213.316 353.04 213.033 352.537 212.702C352.034 212.371 351.567 211.978 351.138 211.56C350.721 211.13 350.328 210.664 349.996 210.161C349.665 209.658 349.382 209.13 349.149 208.565C348.916 208.013 348.744 207.436 348.621 206.846C348.511 206.257 348.449 205.643 348.449 205.054C348.449 204.452 348.51 203.839 348.621 203.249C348.744 202.66 348.916 202.083 349.149 201.53C349.382 200.965 349.665 200.437 349.996 199.934C350.327 199.431 350.72 198.964 351.138 198.535C351.568 198.118 352.034 197.725 352.537 197.393C353.04 197.062 353.58 196.779 354.133 196.546C354.685 196.313 355.262 196.141 355.852 196.018C357.043 195.785 358.27 195.785 359.449 196.018C360.038 196.141 360.615 196.313 361.18 196.546C361.732 196.779 362.26 197.062 362.764 197.393C363.268 197.724 363.746 198.117 364.163 198.535C364.593 198.965 364.973 199.431 365.305 199.934C365.636 200.437 365.931 200.965 366.152 201.53C366.385 202.082 366.557 202.659 366.68 203.249C366.803 203.838 366.864 204.452 366.864 205.054C366.864 205.643 366.803 206.257 366.68 206.846C366.557 207.435 366.385 208.012 366.152 208.565C365.931 209.13 365.636 209.658 365.305 210.161C364.974 210.664 364.593 211.131 364.163 211.56C363.746 211.977 363.267 212.37 362.764 212.702C362.261 213.033 361.733 213.316 361.18 213.549C360.615 213.782 360.038 213.954 359.449 214.077C358.86 214.2 358.259 214.249 357.657 214.249Z" fill="#F97316"/>
<path d="M85.151 284.22C84.549 284.22 83.948 284.159 83.346 284.048C82.769 283.925 82.18 283.753 81.627 283.52C81.075 283.287 80.534 283.004 80.043 282.673C79.527 282.329 79.061 281.949 78.631 281.531C78.214 281.101 77.833 280.635 77.489 280.132C77.158 279.629 76.875 279.089 76.642 278.536C76.421 277.984 76.237 277.407 76.126 276.817C76.003 276.215 75.942 275.614 75.942 275.012C75.942 274.41 76.003 273.809 76.126 273.22C76.236 272.631 76.421 272.054 76.642 271.489C76.875 270.937 77.158 270.409 77.489 269.905C77.833 269.402 78.213 268.935 78.631 268.506C79.061 268.076 79.527 267.696 80.043 267.364C80.534 267.033 81.074 266.738 81.627 266.517C82.179 266.284 82.769 266.112 83.346 265.989C84.537 265.743 85.764 265.743 86.943 265.989C87.532 266.112 88.121 266.284 88.674 266.517C89.226 266.738 89.767 267.033 90.258 267.364C90.761 267.695 91.24 268.076 91.657 268.506C92.087 268.936 92.467 269.402 92.799 269.905C93.131 270.408 93.425 270.936 93.646 271.489C93.879 272.054 94.063 272.631 94.174 273.22C94.297 273.809 94.358 274.411 94.358 275.012C94.358 275.613 94.297 276.215 94.174 276.817C94.064 277.406 93.879 277.983 93.646 278.536C93.425 279.088 93.13 279.629 92.799 280.132C92.468 280.635 92.087 281.102 91.657 281.531C91.24 281.948 90.761 282.329 90.258 282.673C89.767 283.004 89.227 283.287 88.674 283.52C88.122 283.753 87.532 283.925 86.943 284.048C86.354 284.158 85.753 284.22 85.151 284.22Z" fill="#F97316"/>
<path d="M303.031 275.013C303.031 269.931 307.156 265.806 312.238 265.806C317.32 265.806 321.445 269.931 321.445 275.013C321.445 280.107 317.32 284.22 312.238 284.22C307.156 284.22 303.031 280.107 303.031 275.013ZM257.611 275.013C257.611 269.931 261.736 265.806 266.818 265.806C271.9 265.806 276.025 269.931 276.025 275.013C276.025 280.107 271.9 284.22 266.818 284.22C261.736 284.22 257.611 280.107 257.611 275.013ZM212.191 275.013C212.191 269.931 216.316 265.806 221.398 265.806C226.492 265.806 230.605 269.931 230.605 275.013C230.605 280.107 226.493 284.22 221.398 284.22C216.316 284.22 212.191 280.107 212.191 275.013ZM166.772 275.013C166.772 269.931 170.897 265.806 175.991 265.806C181.073 265.806 185.198 269.931 185.198 275.013C185.198 280.107 181.073 284.22 175.991 284.22C170.896 284.22 166.772 280.107 166.772 275.013ZM121.364 275.013C121.364 269.931 125.476 265.806 130.571 265.806C135.653 265.806 139.778 269.931 139.778 275.013C139.778 280.107 135.653 284.22 130.571 284.22C125.476 284.22 121.364 280.107 121.364 275.013Z" fill="#F97316"/>
<path d="M357.657 284.22C357.055 284.22 356.454 284.159 355.852 284.048C355.263 283.925 354.686 283.753 354.133 283.52C353.581 283.287 353.04 283.004 352.537 282.673C352.034 282.329 351.567 281.949 351.138 281.531C350.721 281.101 350.328 280.635 349.996 280.132C349.664 279.629 349.382 279.089 349.149 278.536C348.916 277.984 348.744 277.407 348.621 276.817C348.511 276.215 348.449 275.614 348.449 275.012C348.449 274.41 348.51 273.809 348.621 273.22C348.744 272.631 348.916 272.054 349.149 271.489C349.382 270.937 349.665 270.409 349.996 269.905C350.327 269.401 350.72 268.935 351.138 268.506C351.568 268.076 352.034 267.696 352.537 267.364C353.04 267.033 353.58 266.738 354.133 266.517C354.685 266.284 355.262 266.112 355.852 265.989C358.847 265.387 362.027 266.37 364.163 268.505C364.593 268.935 364.973 269.401 365.305 269.904C365.636 270.407 365.931 270.935 366.152 271.488C366.385 272.053 366.557 272.63 366.68 273.219C366.803 273.808 366.864 274.41 366.864 275.011C366.864 275.613 366.803 276.214 366.68 276.816C366.557 277.405 366.385 277.982 366.152 278.535C365.931 279.087 365.636 279.627 365.305 280.131C364.974 280.634 364.593 281.101 364.163 281.53C362.445 283.238 360.076 284.22 357.657 284.22Z" fill="#F97316"/>
<path d="M85.151 354.191C84.549 354.191 83.948 354.13 83.346 354.007C82.769 353.897 82.18 353.712 81.627 353.479C81.075 353.258 80.534 352.976 80.043 352.644C79.527 352.3 79.061 351.92 78.631 351.49C76.925 349.784 75.943 347.402 75.943 344.984C75.943 344.383 76.004 343.781 76.127 343.179C76.237 342.602 76.422 342.013 76.643 341.46C76.876 340.908 77.159 340.367 77.49 339.876C77.834 339.373 78.214 338.894 78.632 338.477C79.062 338.047 79.528 337.667 80.044 337.323C80.535 336.992 81.075 336.709 81.628 336.476C82.18 336.255 82.77 336.071 83.347 335.96C84.538 335.714 85.765 335.714 86.944 335.96C87.533 336.07 88.122 336.255 88.675 336.476C89.227 336.709 89.768 336.992 90.259 337.323C90.762 337.667 91.241 338.047 91.658 338.477C92.088 338.894 92.468 339.373 92.8 339.876C93.131 340.367 93.426 340.907 93.647 341.46C93.88 342.012 94.064 342.602 94.175 343.179C94.298 343.781 94.359 344.382 94.359 344.984C94.359 347.402 93.377 349.784 91.658 351.49C91.241 351.92 90.762 352.3 90.259 352.644C89.768 352.975 89.228 353.258 88.675 353.479C88.123 353.712 87.533 353.896 86.944 354.007C86.354 354.129 85.753 354.191 85.151 354.191Z" fill="#F97316"/>
<path d="M257.611 344.984C257.611 339.902 261.736 335.777 266.818 335.777C271.9 335.777 276.025 339.902 276.025 344.984C276.025 350.066 271.9 354.191 266.818 354.191C261.736 354.191 257.611 350.066 257.611 344.984ZM212.191 344.984C212.191 339.902 216.316 335.777 221.398 335.777C226.492 335.777 230.605 339.902 230.605 344.984C230.605 350.066 226.493 354.191 221.398 354.191C216.316 354.191 212.191 350.066 212.191 344.984ZM166.772 344.984C166.772 339.902 170.897 335.777 175.991 335.777C181.073 335.777 185.198 339.902 185.198 344.984C185.198 350.066 181.073 354.191 175.991 354.191C170.896 354.191 166.772 350.066 166.772 344.984ZM121.364 344.984C121.364 339.902 125.476 335.777 130.571 335.777C135.653 335.777 139.778 339.902 139.778 344.984C139.778 350.066 135.653 354.191 130.571 354.191C125.476 354.191 121.364 350.066 121.364 344.984Z" fill="#F97316"/>
<path d="M85.151 424.162C84.549 424.162 83.948 424.101 83.346 423.978C82.769 423.855 82.18 423.683 81.627 423.45C81.074 423.217 80.534 422.934 80.043 422.603C79.527 422.272 79.061 421.891 78.631 421.461C78.214 421.031 77.833 420.565 77.489 420.062C77.158 419.559 76.875 419.031 76.642 418.478C76.421 417.913 76.237 417.336 76.126 416.747C76.003 416.158 75.942 415.556 75.942 414.955C75.942 414.354 76.003 413.752 76.126 413.15C76.236 412.561 76.421 411.984 76.642 411.431C76.875 410.879 77.158 410.338 77.489 409.835C77.833 409.332 78.213 408.865 78.631 408.436C79.061 408.019 79.527 407.626 80.043 407.294C80.534 406.963 81.074 406.68 81.627 406.447C82.179 406.214 82.769 406.042 83.346 405.919C84.537 405.686 85.764 405.686 86.943 405.919C87.532 406.042 88.121 406.214 88.674 406.447C89.226 406.68 89.767 406.963 90.258 407.294C90.761 407.625 91.24 408.018 91.657 408.436C93.376 410.155 94.358 412.524 94.358 414.954C94.358 415.556 94.297 416.157 94.174 416.746C94.064 417.335 93.879 417.912 93.646 418.477C93.425 419.029 93.13 419.557 92.799 420.061C92.468 420.564 92.087 421.031 91.657 421.46C91.24 421.89 90.761 422.27 90.258 422.602C89.767 422.933 89.227 423.216 88.674 423.449C88.122 423.682 87.532 423.854 86.943 423.977C86.354 424.1 85.753 424.162 85.151 424.162Z" fill="#F97316"/>
<path d="M257.611 414.955C257.611 409.861 261.736 405.748 266.818 405.748C271.9 405.748 276.025 409.86 276.025 414.955C276.025 420.037 271.9 424.162 266.818 424.162C261.736 424.162 257.611 420.037 257.611 414.955ZM212.191 414.955C212.191 409.861 216.316 405.748 221.398 405.748C226.492 405.748 230.605 409.86 230.605 414.955C230.605 420.037 226.493 424.162 221.398 424.162C216.316 424.162 212.191 420.037 212.191 414.955ZM166.772 414.955C166.772 409.861 170.897 405.748 175.991 405.748C181.073 405.748 185.198 409.86 185.198 414.955C185.198 420.037 181.073 424.162 175.991 424.162C170.896 424.162 166.772 420.037 166.772 414.955ZM121.364 414.955C121.364 409.861 125.476 405.748 130.571 405.748C135.653 405.748 139.778 409.86 139.778 414.955C139.778 420.037 135.653 424.162 130.571 424.162C125.476 424.162 121.364 420.037 121.364 414.955Z" fill="#F97316"/>
<path d="M446.483 390.176C446.483 369.592 432.657 352.906 415.602 352.906C412.355 352.906 409.226 353.511 406.286 354.633C395.69 358.679 383.804 358.679 373.208 354.633C370.269 353.511 367.139 352.906 363.892 352.906C346.837 352.906 333.011 369.592 333.011 390.176C333.011 397.37 334.7 404.086 337.625 409.779C344.477 423.118 348.899 437.553 351.301 452.355C351.34 452.599 351.381 452.842 351.42 453.087C353.15 463.597 367.662 464.799 371.142 454.732C375.96 440.793 382.33 428.389 389.744 428.389C397.158 428.389 403.528 440.794 408.346 454.732C411.826 464.799 426.338 463.597 428.068 453.087C428.108 452.843 428.148 452.6 428.187 452.355C430.588 437.553 435.01 423.118 441.863 409.779C444.793 404.085 446.483 397.369 446.483 390.176Z" fill="white"/>
<path d="M112.765 9.44199C103.951 9.44199 96.807 16.586 96.807 25.4V72.047C96.807 80.861 103.951 88.005 112.765 88.005C121.579 88.005 128.723 80.861 128.723 72.047V25.401C128.723 16.588 121.579 9.44199 112.765 9.44199Z" fill="#F9D08F"/>
<path d="M330.043 9.44199C321.229 9.44199 314.085 16.586 314.085 25.4V72.047C314.085 80.861 321.229 88.005 330.043 88.005C338.857 88.005 346.001 80.861 346.001 72.047V25.401C346.002 16.588 338.857 9.44199 330.043 9.44199Z" fill="#F9D08F"/>
<path d="M294.011 480.995H35.327V152.645H99.467C104.552 152.645 108.674 148.523 108.674 143.438C108.674 138.353 104.552 134.231 99.467 134.231H35.327V38.484H87.983V71.812C87.983 85.688 99.272 96.977 113.148 96.977C127.024 96.977 138.313 85.688 138.313 71.812V38.484H305.261V71.812C305.261 85.688 316.55 96.977 330.426 96.977C344.302 96.977 355.591 85.688 355.591 71.812V38.484H408.247V134.231H136.294C131.209 134.231 127.087 138.353 127.087 143.438C127.087 148.523 131.209 152.645 136.294 152.645H408.248V280.277C408.248 285.362 412.37 289.484 417.455 289.484C422.54 289.484 426.662 285.362 426.662 280.277V29.277C426.662 24.192 422.54 20.07 417.455 20.07H355.073C352.71 8.629 342.558 0 330.426 0C318.294 0 308.143 8.629 305.78 20.071H137.794C135.432 8.629 125.28 0 113.148 0C101.016 0 90.865 8.629 88.504 20.071H26.12C21.035 20.071 16.913 24.193 16.913 29.278V490.203C16.913 495.288 21.035 499.41 26.12 499.41H294.011C299.096 499.41 303.218 495.288 303.218 490.203C303.218 485.118 299.095 480.995 294.011 480.995ZM323.675 25.165C323.675 21.442 326.703 18.413 330.427 18.413C334.151 18.413 337.179 21.441 337.179 25.165V29.158C337.179 29.199 337.173 29.237 337.173 29.277C337.173 29.318 337.178 29.356 337.179 29.396V71.812C337.179 75.535 334.151 78.564 330.427 78.564C326.703 78.564 323.675 75.536 323.675 71.812V25.165ZM106.396 25.165C106.396 21.442 109.424 18.413 113.148 18.413C116.871 18.413 119.9 21.441 119.9 25.165V71.812C119.9 75.535 116.872 78.564 113.148 78.564C109.425 78.564 106.396 75.536 106.396 71.812V25.165Z" fill="#F97316"/>
<path d="M390.131 302.096C332.26 302.096 285.179 349.178 285.179 407.048C285.179 464.918 332.261 512 390.131 512C415.578 512 440.126 502.776 459.25 486.027C463.075 482.677 463.461 476.86 460.111 473.036C456.761 469.211 450.944 468.825 447.12 472.175C431.354 485.983 411.116 493.586 390.133 493.586C342.415 493.586 303.595 454.764 303.595 407.048C303.595 359.332 342.417 320.51 390.133 320.51C437.849 320.51 476.671 359.332 476.671 407.048C476.671 421.111 473.407 434.518 466.971 446.901C464.625 451.412 466.382 456.971 470.893 459.317C475.403 461.663 480.964 459.905 483.309 455.395C491.013 440.575 495.086 423.857 495.086 407.049C495.083 349.177 448.002 302.096 390.131 302.096Z" fill="#F97316"/>
<path d="M221.781 195.6C216.699 195.6 212.574 199.725 212.574 204.807C212.574 209.901 216.699 214.026 221.781 214.026C226.875 214.026 230.988 209.901 230.988 204.807C230.988 199.724 226.877 195.6 221.781 195.6Z" fill="#F97316"/>
<path d="M176.374 195.6C171.28 195.6 167.155 199.725 167.155 204.807C167.155 209.901 171.28 214.026 176.374 214.026C181.456 214.026 185.581 209.901 185.581 204.807C185.58 199.724 181.457 195.6 176.374 195.6Z" fill="#F97316"/>
<path d="M267.201 195.6C262.119 195.6 257.994 199.725 257.994 204.807C257.994 209.901 262.119 214.026 267.201 214.026C272.283 214.026 276.408 209.901 276.408 204.807C276.408 199.724 272.283 195.6 267.201 195.6Z" fill="#F97316"/>
<path d="M312.621 195.6C307.539 195.6 303.414 199.725 303.414 204.807C303.414 209.901 307.539 214.026 312.621 214.026C317.703 214.026 321.828 209.901 321.828 204.807C321.827 199.724 317.703 195.6 312.621 195.6Z" fill="#F97316"/>
<path d="M221.781 265.571C216.699 265.571 212.574 269.696 212.574 274.778C212.574 279.872 216.699 283.985 221.781 283.985C226.875 283.985 230.988 279.873 230.988 274.778C230.988 269.695 226.877 265.571 221.781 265.571Z" fill="#F97316"/>
<path d="M176.374 265.571C171.28 265.571 167.155 269.696 167.155 274.778C167.155 279.872 171.28 283.985 176.374 283.985C181.456 283.985 185.581 279.873 185.581 274.778C185.58 269.695 181.457 265.571 176.374 265.571Z" fill="#F97316"/>
<path d="M267.201 265.571C262.119 265.571 257.994 269.696 257.994 274.778C257.994 279.872 262.119 283.985 267.201 283.985C272.283 283.985 276.408 279.873 276.408 274.778C276.408 269.695 272.283 265.571 267.201 265.571Z" fill="#F97316"/>
<path d="M312.621 265.571C307.539 265.571 303.414 269.696 303.414 274.778C303.414 279.872 307.539 283.985 312.621 283.985C317.703 283.985 321.828 279.873 321.828 274.778C321.827 269.695 317.703 265.571 312.621 265.571Z" fill="#F97316"/>
<path d="M130.954 265.571C125.86 265.571 121.747 269.696 121.747 274.778C121.747 279.872 125.859 283.985 130.954 283.985C136.036 283.985 140.161 279.873 140.161 274.778C140.161 269.695 136.037 265.571 130.954 265.571Z" fill="#F97316"/>
<path d="M267.202 353.955C272.287 353.955 276.409 349.833 276.409 344.748C276.409 339.663 272.287 335.541 267.202 335.541C262.117 335.541 257.995 339.663 257.995 344.748C257.995 349.833 262.117 353.955 267.202 353.955Z" fill="#F97316"/>
<path d="M221.781 335.542C216.699 335.542 212.574 339.667 212.574 344.749C212.574 349.831 216.699 353.956 221.781 353.956C226.875 353.956 230.988 349.831 230.988 344.749C230.988 339.666 226.877 335.542 221.781 335.542Z" fill="#F97316"/>
<path d="M130.954 335.542C125.86 335.542 121.747 339.667 121.747 344.749C121.747 349.831 125.859 353.956 130.954 353.956C136.036 353.956 140.161 349.831 140.161 344.749C140.161 339.666 136.037 335.542 130.954 335.542Z" fill="#F97316"/>
<path d="M176.374 335.542C171.28 335.542 167.155 339.667 167.155 344.749C167.155 349.831 171.28 353.956 176.374 353.956C181.456 353.956 185.581 349.831 185.581 344.749C185.58 339.666 181.457 335.542 176.374 335.542Z" fill="#F97316"/>
<path d="M176.374 405.513C171.28 405.513 167.155 409.625 167.155 414.72C167.155 419.802 171.28 423.927 176.374 423.927C181.456 423.927 185.581 419.802 185.581 414.72C185.58 409.625 181.457 405.513 176.374 405.513Z" fill="#F97316"/>
<path d="M130.954 405.513C125.86 405.513 121.747 409.625 121.747 414.72C121.747 419.802 125.859 423.927 130.954 423.927C136.036 423.927 140.161 419.802 140.161 414.72C140.161 409.625 136.037 405.513 130.954 405.513Z" fill="#F97316"/>
<path d="M221.781 405.513C216.699 405.513 212.574 409.625 212.574 414.72C212.574 419.802 216.699 423.927 221.781 423.927C226.875 423.927 230.988 419.802 230.988 414.72C230.988 409.625 226.877 405.513 221.781 405.513Z" fill="#F97316"/>
<path d="M267.201 405.513C262.119 405.513 257.994 409.625 257.994 414.72C257.994 419.802 262.119 423.927 267.201 423.927C272.283 423.927 276.408 419.802 276.408 414.72C276.408 409.625 272.283 405.513 267.201 405.513Z" fill="#F97316"/>
<path d="M415.986 343.463C411.68 343.463 407.441 344.247 403.386 345.797C394.962 349.013 385.3 349.012 376.877 345.797C372.822 344.249 368.584 343.463 364.277 343.463C342.172 343.463 324.19 364.312 324.19 389.94C324.19 398.345 326.137 406.58 329.822 413.751C335.944 425.666 340.243 439.071 342.598 453.593L342.722 454.347C344.193 463.281 351.22 469.798 360.211 470.562C369.214 471.329 377.266 466.081 380.23 457.503C384.901 443.991 388.586 439.333 390.132 437.851C391.678 439.333 395.363 443.991 400.032 457.503C402.805 465.526 410.023 470.635 418.318 470.635C418.89 470.635 419.469 470.61 420.051 470.561C429.042 469.796 436.069 463.28 437.541 454.346L437.664 453.593C440.02 439.071 444.319 425.666 450.44 413.75C454.125 406.577 456.073 398.344 456.073 389.939C456.073 364.312 438.091 343.463 415.986 343.463ZM434.062 405.336C427.056 418.971 422.153 434.214 419.487 450.645L419.372 451.355C419.308 451.747 419.242 452.15 418.492 452.214C417.708 452.278 417.564 451.859 417.436 451.487C412.608 437.517 404.525 418.944 390.133 418.944C383.24 418.944 372.912 422.317 362.828 451.487C362.7 451.859 362.56 452.278 361.772 452.215C361.023 452.151 360.959 451.764 360.892 451.356L360.775 450.645C358.109 434.214 353.205 418.971 346.2 405.337C343.847 400.757 342.603 395.433 342.603 389.941C342.603 374.466 352.325 361.878 364.277 361.878C366.329 361.878 368.359 362.255 370.309 363C383.092 367.881 397.172 367.88 409.954 363C411.903 362.256 413.933 361.878 415.986 361.878C427.938 361.878 437.66 374.467 437.66 389.941C437.66 395.431 436.415 400.755 434.062 405.336Z" fill="#F97316"/>
<path d="M358.04 195.6C352.958 195.6 348.833 199.725 348.833 204.807C348.833 209.901 352.958 214.026 358.04 214.026C363.122 214.026 367.247 209.901 367.247 204.807C367.247 199.724 363.123 195.6 358.04 195.6Z" fill="#F97316"/>
<path d="M358.04 265.571C352.958 265.571 348.833 269.696 348.833 274.778C348.833 279.872 352.958 283.985 358.04 283.985C363.122 283.985 367.247 279.873 367.247 274.778C367.247 269.695 363.123 265.571 358.04 265.571Z" fill="#F97316"/>
<path d="M85.534 265.571C80.44 265.571 76.327 269.696 76.327 274.778C76.327 279.872 80.439 283.985 85.534 283.985C90.616 283.985 94.741 279.873 94.741 274.778C94.741 269.695 90.617 265.571 85.534 265.571Z" fill="#F97316"/>
<path d="M85.534 335.542C80.44 335.542 76.327 339.667 76.327 344.749C76.327 349.831 80.439 353.956 85.534 353.956C90.616 353.956 94.741 349.831 94.741 344.749C94.741 339.666 90.617 335.542 85.534 335.542Z" fill="#F97316"/>
<path d="M85.534 405.513C80.44 405.513 76.327 409.625 76.327 414.72C76.327 419.802 80.439 423.927 85.534 423.927C90.616 423.927 94.741 419.802 94.741 414.72C94.741 409.625 90.617 405.513 85.534 405.513Z" fill="#F97316"/>
</g>
<defs>
<clipPath id="clip0_20_7">
<rect width="511.999" height="511.999" fill="white"/>
</clipPath>
</defs>
</svg>
