<svg width="630" height="800" viewBox="0 0 630 800" fill="none" xmlns="http://www.w3.org/2000/svg">
<path d="M87.7296 643.506C79.5515 652.589 73.4468 663.037 70.0296 673.609C67.6374 681.056 66.489 688.405 66.489 695.289C66.489 699.489 66.9046 703.492 67.8078 707.277C68.4921 710.084 69.4187 712.77 70.664 715.236C71.5921 717.116 72.7156 718.898 74.0328 720.509C76.0109 722.902 78.4515 724.977 81.3578 726.417C84.239 727.883 87.5593 728.664 90.9281 728.639V713.38C90.2203 713.38 89.6828 713.281 89.1703 713.136C88.2671 712.892 87.5343 712.477 86.7046 711.744C86.1187 711.183 85.4843 710.45 84.8984 709.448C84.0187 708.008 83.189 706.006 82.6281 703.614C82.0671 701.197 81.7484 698.389 81.7484 695.289C81.7484 690.137 82.6515 684.278 84.5562 678.272C86.339 672.755 89.1703 667.041 92.8812 661.622C98.4234 653.467 105.992 646.022 114.731 640.698C119.077 638.037 123.764 635.889 128.623 634.423C133.506 632.958 138.609 632.177 143.883 632.177C150.914 632.177 157.653 633.592 163.952 636.131C173.375 639.891 181.895 646.214 188.708 653.758C195.495 661.278 200.548 670.017 203.186 678.27C205.114 684.277 206.019 690.136 206.019 695.287C206.019 698.437 205.677 701.294 205.091 703.711C204.675 705.517 204.089 707.13 203.455 708.398C202.966 709.375 202.453 710.156 201.917 710.816C201.136 711.767 200.355 712.378 199.598 712.769C198.817 713.134 198.011 713.355 196.839 713.38V728.639C198.841 728.664 200.819 728.37 202.698 727.858C205.994 726.955 208.948 725.245 211.366 723.023C213.172 721.362 214.686 719.459 215.931 717.384C217.836 714.259 219.155 710.792 220.008 707.081C220.861 703.37 221.278 699.416 221.278 695.289C221.278 688.405 220.131 681.031 217.737 673.609C215.467 666.553 212 659.572 207.508 653.003C200.769 643.164 191.784 634.228 180.994 627.637C175.598 624.366 169.762 621.68 163.537 619.825C157.312 617.92 150.72 616.895 143.884 616.895C134.778 616.895 126.086 618.752 118.152 621.948C106.211 626.733 95.9078 634.448 87.7296 643.506Z" fill="#F97316"/>
<path d="M173.741 706.42C171.25 708.398 169.786 711.377 169.786 714.575V726.905C169.786 730.078 171.251 733.081 173.741 735.059C176.231 737.012 179.503 737.745 182.578 737.012L190.806 735.059V706.397L182.578 704.444C179.502 703.711 176.231 704.444 173.741 706.42Z" fill="#F97316"/>
<path d="M105.186 704.444L96.9343 706.397V735.059L105.186 737.012C108.262 737.745 111.534 737.012 114.023 735.059C116.514 733.081 117.978 730.078 117.978 726.905V714.575C117.978 711.377 116.512 708.398 114.023 706.42C111.534 704.442 108.262 703.711 105.186 704.444Z" fill="#F97316"/>
<path d="M623.52 671.241C620.37 659.473 615.928 648.927 610.459 639.552C600.864 623.072 588.169 610.255 574.156 600.098C563.634 592.481 552.403 586.256 540.978 580.909C523.864 572.902 506.359 566.748 490.197 560.767C474.034 554.809 459.264 548.975 447.766 542.188C443.566 539.697 439.783 537.109 436.511 534.4C431.628 530.323 427.819 525.977 425.061 521.119C422.303 516.261 420.447 510.792 419.739 503.956C419.227 499.073 419.006 494.483 419.006 490.089C419.006 477.15 420.911 465.944 423.352 454.494C430.578 446.339 437.194 436.622 443.444 425.002C449.719 413.308 455.675 399.659 461.608 383.497C465.417 381.764 469.25 379.688 472.984 377.148C481.53 371.436 489.634 363.428 496.397 352.759C503.136 342.091 508.555 328.833 512.266 312.477C513.291 307.936 513.78 303.419 513.78 298.975C513.805 289.697 511.606 280.859 507.92 272.95C505.356 267.456 502.109 262.428 498.325 257.862C500.253 250.733 502.597 241.139 504.697 229.908C507.578 214.308 509.97 195.558 509.97 175.855C509.97 163.134 508.969 150 506.381 137.036C504.453 127.319 501.595 117.675 497.592 108.447C491.563 94.5547 482.797 81.4938 470.614 70.7031C459.334 60.7172 445.198 52.7594 428.133 47.6562C422.103 40.4297 416.048 34.2766 409.847 29.0531C404.475 24.5609 398.983 20.7766 393.367 17.6766C384.92 12.9891 376.18 9.88906 367.22 8.00781C358.261 6.12656 349.13 5.44375 339.656 5.44375C326.595 5.44375 312.85 6.7375 297.664 8.22656C291.927 8.8125 287.117 9.52031 282.942 10.2531C276.717 11.3766 272.053 12.5234 268.319 13.2812C266.439 13.6469 264.803 13.9406 263.192 14.1359C261.581 14.3062 260.019 14.4297 258.236 14.4297C255.844 14.4297 253.084 14.2344 249.472 13.7219C238.413 12.1109 228.305 9.62031 220.37 7.17812C216.416 5.98125 212.997 4.78594 210.311 3.75937C208.969 3.24687 207.797 2.78281 206.869 2.39219C205.917 2.00156 205.208 1.63594 204.794 1.44062L204.819 1.46563C203.598 0.83125 202.427 0.489062 201.377 0.29375C200.327 0.0484375 199.4 0 198.594 0C196.909 0 195.712 0.24375 194.761 0.489062C193.809 0.734375 193.077 1.02656 192.417 1.29531C191.147 1.80781 190.17 2.34531 189.194 2.93125C187.411 4.00625 185.703 5.20156 183.895 6.59375C180.745 9.03594 177.28 12.0625 173.592 15.6266C168.075 20.9484 162.166 27.3937 156.795 34.425C154.109 37.9156 151.595 41.5781 149.325 45.3625C147.055 49.1469 145.053 53.0281 143.466 57.1063C135.702 77.2969 130.575 95.9 127.402 113.064C124.203 130.227 122.983 145.95 122.983 160.378C122.983 183.986 126.278 204.006 129.453 220.925C129.453 221.731 129.478 222.488 129.527 223.294C129.625 224.881 129.795 226.517 129.966 228.225C130.234 230.764 130.527 233.377 130.747 235.573C130.869 236.672 130.967 237.648 131.041 238.406C131.066 238.772 131.089 239.114 131.089 239.358L131.114 239.602V239.675V239.7V241.141L134.214 254.934C129.747 259.817 125.889 265.286 122.886 271.292C118.686 279.642 116.197 289.066 116.197 299.027C116.197 303.422 116.709 307.962 117.734 312.478C120.177 323.391 123.423 332.912 127.305 341.214C133.116 353.689 140.489 363.383 148.642 370.658C154.966 376.322 161.728 380.448 168.417 383.5C174.325 399.663 180.283 413.286 186.556 424.98C192.806 436.625 199.398 446.317 206.625 454.472C209.067 465.922 210.97 477.153 210.995 490.092C210.995 494.487 210.752 499.077 210.239 503.959C209.75 508.647 208.725 512.7 207.236 516.362C205.014 521.831 201.767 526.494 197.348 530.914C192.93 535.259 187.289 539.337 180.625 543.122C173.862 546.955 166.025 550.544 157.505 553.963C142.563 560.017 125.522 565.73 108.261 572.639C95.3219 577.791 82.2109 583.675 69.7109 591.023C60.3359 596.541 51.3266 602.938 43.0266 610.53C30.6 621.906 19.8812 636.091 12.4844 653.62C5.06249 671.173 0.935928 691.95 0.960928 716.511C0.960928 719.978 1.69374 723.273 2.88906 726.325C3.98749 729.181 5.52655 731.794 7.3328 734.284C10.7516 738.923 15.1453 743.073 20.5406 747.078C30.0141 754.061 42.5859 760.603 58.8703 766.756C83.2844 775.961 116 784.238 158.309 790.242C200.595 796.248 252.475 800.008 314.975 800.008C369.198 800.008 415.391 797.2 454.281 792.537C483.431 789.022 508.505 784.481 529.77 779.281C545.738 775.4 559.58 771.127 571.445 766.634C580.333 763.266 588.145 759.75 594.931 756.136C600.009 753.427 604.502 750.642 608.481 747.786C614.439 743.464 619.223 739.022 622.861 733.967C624.692 731.453 626.181 728.767 627.28 725.838C628.378 722.956 629.038 719.783 629.038 716.511C629.038 699.708 627.109 684.692 623.52 671.241ZM426.353 559.522L347.984 681.909L339.244 621.827L361.484 598.291L347.08 574.267L407.87 542.309C409.555 544.483 411.338 546.533 413.217 548.486C417.247 552.613 421.666 556.25 426.353 559.522ZM201.059 136.181C271.714 151.855 409.873 121.898 409.873 121.898C409.873 121.898 411.363 156.152 434.922 187.597C444.2 199.95 451.841 219.263 457.578 237.622C456.041 234.766 452.427 233.691 447.031 233.008C434.922 231.372 416.928 230.322 396.666 231.298C336.461 234.253 340.928 239.722 317.295 239.722C293.663 239.722 298.13 234.253 237.925 231.298C217.661 230.322 199.669 231.372 187.534 233.008C181.236 233.838 177.28 235.108 176.377 239.306C176.059 240.869 175.57 242.627 173.398 243.481C180.064 218.58 198.619 186.767 201.059 136.181ZM446.128 275.733C446.128 276.075 445.884 310.597 422.397 322.388C414.414 326.416 404.403 328.637 394.223 328.662C383.481 328.662 373.667 326.22 365.83 321.606C357.163 316.528 351.328 308.984 348.472 299.242C347.788 296.972 347.178 294.702 346.544 292.503C344.688 285.789 339.683 267.138 350.303 258.934C357.139 253.588 378.355 250.219 398.692 250.219C417.173 250.219 436.022 252.733 441.539 258.495C445.177 262.305 446.592 269.092 446.128 275.733ZM288.047 292.505C287.413 294.702 286.777 296.972 286.119 299.244C283.263 308.984 277.427 316.53 268.784 321.608C260.923 326.222 251.108 328.664 240.366 328.664C230.184 328.639 220.2 326.417 212.192 322.389C188.706 310.597 188.486 276.075 188.461 275.734C187.997 269.094 189.412 262.306 193.027 258.498C198.569 252.736 217.416 250.222 235.898 250.222C256.211 250.222 277.452 253.591 284.311 258.938C294.908 267.139 289.903 285.791 288.047 292.505ZM209.605 412.598C203.477 401.172 197.373 386.964 191.098 369.239L189.023 363.453L183.261 361.33C179.256 359.864 175.35 357.961 171.616 355.445C165.977 351.661 160.63 346.486 155.722 338.77C150.814 331.055 146.42 320.703 143.247 306.714C142.636 304.053 142.392 301.514 142.392 299.023C142.392 293.408 143.734 288.086 146.298 283.008C148.398 278.784 151.328 274.805 154.892 271.191C160.898 280.273 165.878 287.475 167.686 289.281C171.128 292.723 172.838 289.403 173.106 282.958C175.23 297.289 182.042 320.947 204.039 332.641C235.705 349.462 282.97 343.163 299.009 305.713C306.261 288.817 306.358 272.314 317.295 272.314C328.208 272.314 328.331 288.819 335.581 305.713C351.645 343.164 398.911 349.462 430.577 332.641C462.217 315.819 462.438 274.169 462.438 271.239C462.438 269.725 463.878 268.578 465.928 268.358C468.614 279.661 470.005 287.328 470.005 287.328C470.005 287.328 473.033 281.542 477.573 273.827C480.283 277 482.53 280.419 484.189 283.983C486.411 288.769 487.608 293.773 487.608 298.973C487.608 301.488 487.339 304.052 486.728 306.689C484.628 316.016 481.967 323.73 478.989 330.127C474.497 339.697 469.32 346.289 463.902 351.123C458.506 355.958 452.744 359.106 446.763 361.328L440.977 363.428L438.925 369.239C432.65 386.964 426.522 401.197 420.395 412.598C414.242 424.025 408.139 432.619 401.792 439.308L399.278 441.969L398.497 445.509C395.664 458.57 392.833 473 392.833 490.089C392.833 495.363 393.102 500.856 393.688 506.642C394.395 513.43 395.958 519.802 398.278 525.661C398.377 525.93 398.522 526.222 398.62 526.467L319.103 568.289L230.969 527.395C233.678 521.047 235.509 514.114 236.291 506.644C236.902 500.858 237.145 495.364 237.145 490.091C237.17 473 234.338 458.547 231.481 445.486L230.7 441.945L228.186 439.308C221.861 432.569 215.733 424.023 209.605 412.598ZM208.897 555.616C213.488 551.93 217.711 547.803 221.445 543.164L288.658 574.366L274.302 598.292L296.519 621.828L288.316 678.395L202.573 560.256C204.747 558.764 206.87 557.227 208.897 555.616ZM602.842 716.406C602.817 716.553 602.647 717.041 602.183 717.822C601.303 719.336 599.253 721.777 595.786 724.561C592.783 726.978 588.73 729.688 583.628 732.472C574.669 737.38 562.534 742.481 547.153 747.316C524.058 754.591 493.564 761.231 455.088 766.066C416.611 770.852 370.152 773.83 314.975 773.83C261.703 773.83 216.537 771.047 178.842 766.53C150.57 763.136 126.498 758.742 106.43 753.859C91.3422 750.173 78.5 746.194 67.8312 742.141C59.7984 739.113 52.9875 736.037 47.3969 733.034C43.1969 730.787 39.6578 728.567 36.7766 726.516C32.4797 723.439 29.7453 720.631 28.3781 718.703C27.6937 717.775 27.3531 717.042 27.2312 716.702C27.1578 716.555 27.1328 716.458 27.1328 716.408C27.1328 701.759 28.7937 689.211 31.6734 678.322C34.1875 668.8 37.6547 660.523 41.8781 653.2C49.2516 640.383 58.9437 630.323 70.4672 621.852C79.0609 615.48 88.7047 610.034 98.9094 605.177C110.359 599.733 122.517 595.045 134.725 590.528V616.895H143.88H153.034V583.766C164.705 579.395 176.081 574.903 186.677 569.533L322.15 756.178L440.509 571.387C440.875 571.948 441.242 572.511 441.584 573.048C446.516 580.983 449.958 589.625 452.253 599.416C454.523 609.181 455.573 620.119 455.573 632.302C455.573 660.525 455.573 685.109 455.573 701.662H413.047V719.997H517.734V701.662H475.205C475.205 685.109 475.205 660.525 475.205 632.302C475.205 614.553 473.178 598.391 468.148 583.644C467.709 582.373 467.245 581.105 466.756 579.859C481.063 585.498 496.028 590.577 510.531 596.339C522.958 601.247 535.019 606.617 545.981 612.989C554.233 617.775 561.875 623.145 568.663 629.248C578.844 638.502 587.192 649.414 593.198 663.403C599.18 677.369 602.842 694.556 602.842 716.406Z" fill="#F97316"/>
</svg>
