<svg width="800" height="800" viewBox="0 0 800 800" fill="none" xmlns="http://www.w3.org/2000/svg">
<path d="M66.6667 733.333H733.333" stroke="#F97316" stroke-width="50" stroke-miterlimit="10" stroke-linecap="round" stroke-linejoin="round"/>
<path d="M98.3317 733.333L99.9983 332.333C99.9983 312 109.665 292.668 125.665 280.001L359 98.3344C383 79.6677 416.663 79.6677 440.997 98.3344L674.333 279.668C690.667 292.334 700 311.666 700 332.333V733.333" stroke="#F97316" stroke-width="50" stroke-miterlimit="10" stroke-linejoin="round"/>
<path d="M433.333 566.667H366.667C339 566.667 316.667 589 316.667 616.667V733.333H483.333V616.667C483.333 589 461 566.667 433.333 566.667Z" stroke="#F97316" stroke-width="50" stroke-miterlimit="10" stroke-linejoin="round"/>
<path d="M316.667 458.333H250C231.667 458.333 216.667 443.333 216.667 425V375C216.667 356.667 231.667 341.667 250 341.667H316.667C335 341.667 350 356.667 350 375V425C350 443.333 335 458.333 316.667 458.333Z" stroke="#F97316" stroke-width="50" stroke-miterlimit="10" stroke-linejoin="round"/>
<path d="M550 458.333H483.333C465 458.333 450 443.333 450 425V375C450 356.667 465 341.667 483.333 341.667H550C568.333 341.667 583.333 356.667 583.333 375V425C583.333 443.333 568.333 458.333 550 458.333Z" stroke="#F97316" stroke-width="50" stroke-miterlimit="10" stroke-linejoin="round"/>
<path d="M633.337 233.333L632.337 133.333H485.67" stroke="#F97316" stroke-width="50" stroke-miterlimit="10" stroke-linecap="round" stroke-linejoin="round"/>
</svg>
